<svg width="100" height="100" viewBox="0 0 100 100" fill="none" xmlns="http://www.w3.org/2000/svg">
<g clip-path="url(#clip0_831_13420)">
<path d="M61.5278 16.1108C61.25 16.1108 60.8334 16.1108 60.5556 16.2497V8.88856C60.5556 5.83301 58.0556 3.33301 55 3.33301C52.6389 3.33301 50.6945 4.7219 49.8611 6.66634C49.0278 4.7219 47.0834 3.33301 44.7222 3.33301C41.6667 3.33301 39.1667 5.83301 39.1667 8.88856V16.2497C38.8889 16.2497 38.4722 16.1108 38.1945 16.1108C35.1389 16.1108 32.6389 18.6108 32.6389 21.6663V65.6941C32.6389 68.7497 35.1389 71.2497 38.1945 71.2497C39.7222 71.2497 41.25 70.5552 42.2222 69.583C42.9167 69.9997 43.8889 70.2775 44.7222 70.2775V70.5552H58.75C59.5834 70.9719 60.4167 71.2497 61.5278 71.2497C64.5834 71.2497 67.0834 68.7497 67.0834 65.6941V21.6663C67.0834 18.6108 64.7222 16.1108 61.5278 16.1108Z" fill="#EDC0A2"/>
<path d="M92.6389 61.8057C92.2222 61.1113 91.8056 60.5557 91.25 60.0002C86.3889 55.139 76.25 57.639 68.4722 65.4168C60.6945 73.1946 58.1945 83.4724 63.0556 88.1946C63.4722 88.6113 63.75 88.889 64.1667 89.1668L75 100H99.7222L100 69.1668L92.6389 61.8057Z" fill="#357BA8"/>
<path d="M84.8611 59.0276C84.5833 58.472 84.1666 57.9165 83.6111 57.4998C74.1666 49.1665 63.4722 36.9442 63.4722 32.6387V10.6942C63.4722 7.63867 60.9722 5.13867 57.9166 5.13867C54.8611 5.13867 52.3611 7.63867 52.3611 10.6942V55.8331C52.3611 73.1942 62.5 83.1942 62.9166 83.6109C63.75 84.3053 64.8611 84.8609 65.9722 85.1387H67.0833C69.5833 85.1387 74.7222 84.1665 80.9722 77.9165C88.1944 70.8331 86.8055 62.7776 84.8611 59.0276Z" fill="#FFD3B6"/>
<path d="M31.3889 65.4168C23.6111 57.639 13.3333 55.139 8.61108 60.0002C8.05553 60.5557 7.63886 61.1113 7.22219 61.8057L-0.138916 69.1668L-2.7135e-05 100H24.7222L35.5555 89.1668C35.9722 88.889 36.3889 88.6113 36.6666 88.1946C41.6666 83.3335 39.1666 73.1946 31.3889 65.4168Z" fill="#357BA8"/>
<path d="M41.9444 5.13867C38.8888 5.13867 36.3888 7.63867 36.3888 10.6942V32.6387C36.3888 36.9442 25.8333 49.1665 16.2499 57.4998C15.6944 57.9165 15.2777 58.472 14.9999 59.0276C13.0555 62.7776 11.6666 70.8331 18.7499 78.0553C24.9999 84.3053 30.1388 85.2776 32.6388 85.2776H33.7499C34.861 85.1387 35.9722 84.5831 36.8055 83.7498C37.2222 83.3331 47.361 73.472 47.361 55.972V10.6942C47.4999 7.63867 44.9999 5.13867 41.9444 5.13867Z" fill="#FFD3B6"/>
<path d="M75.6945 19.1665C75.8334 19.1665 75.8334 19.1665 75.9722 19.0277L85.8334 13.4721C85.9722 13.3332 86.1111 13.1943 86.1111 13.0554C86.1111 12.9165 86.1111 12.7777 85.9723 12.6388L81.6667 8.33321C81.5278 8.33321 81.3889 8.19432 81.1111 8.33321C80.9723 8.33321 80.8334 8.4721 80.6945 8.61099L75.1389 18.4721C75 18.7499 75 18.8888 75.2778 19.1665H75.6945ZM14.5834 13.611L24.4445 19.1665C24.5834 19.1665 24.5834 19.3054 24.7222 19.3054C25.1389 19.3054 25.2778 19.0277 25.2778 18.7499C25.2778 18.611 25.2778 18.4721 25.1389 18.3332L19.7222 8.61099C19.5834 8.33321 19.4445 8.33321 19.3056 8.33321C19.1667 8.33321 19.0278 8.33321 18.8889 8.4721L14.5834 12.7777C14.4445 12.9165 14.4445 13.0554 14.4445 13.1943C14.4445 13.3332 14.4445 13.4721 14.5834 13.611ZM86.25 25.9721C86.1111 25.8332 85.9722 25.8332 85.8334 25.8332L75 28.8888C74.7222 28.8888 74.5834 29.1665 74.5834 29.4443C74.5834 29.7221 74.7222 29.861 75 29.9999L85.8334 33.0554H85.9723C86.1111 33.0554 86.25 33.0554 86.25 32.9165C86.3889 32.7777 86.5278 32.6388 86.5278 32.4999V26.3888C86.3889 26.2499 86.3889 25.9721 86.25 25.9721ZM25.5556 28.8888L14.7222 25.8332C14.5834 25.8332 14.4445 25.8332 14.3056 25.9721C14.0278 25.9721 13.8889 26.2499 13.8889 26.3888V32.361C13.8889 32.4999 14.0278 32.6388 14.1667 32.7777C14.3056 32.9165 14.4445 32.9165 14.4445 32.9165H14.5834L25.4167 29.861C25.6945 29.861 25.8334 29.5832 25.8334 29.3054C25.8334 29.0277 25.6945 28.8888 25.5556 28.8888Z" fill="#00BEEA"/>
</g>
<defs>
<clipPath id="clip0_831_13420">
<rect width="100" height="100" fill="white"/>
</clipPath>
</defs>
</svg>
